<svg width="59" height="36" viewBox="0 0 59 36" fill="none" xmlns="http://www.w3.org/2000/svg">
<g filter="url(#filter0_i)">
<path d="M26.2734 23.7656C25.8516 27.375 24.5156 30.1641 22.2656 32.1328C20.0312 34.0859 17.0547 35.0625 13.3359 35.0625C9.30469 35.0625 6.07031 33.6172 3.63281 30.7266C1.21094 27.8359 0 23.9688 0 19.125V15.8438C0 12.6719 0.5625 9.88281 1.6875 7.47656C2.82812 5.07031 4.4375 3.22656 6.51562 1.94531C8.59375 0.648438 11 0 13.7344 0C17.3594 0 20.2656 1.01562 22.4531 3.04688C24.6406 5.0625 25.9141 7.85938 26.2734 11.4375H21.75C21.3594 8.71875 20.5078 6.75 19.1953 5.53125C17.8984 4.3125 16.0781 3.70312 13.7344 3.70312C10.8594 3.70312 8.60156 4.76562 6.96094 6.89062C5.33594 9.01562 4.52344 12.0391 4.52344 15.9609V19.2656C4.52344 22.9688 5.29688 25.9141 6.84375 28.1016C8.39062 30.2891 10.5547 31.3828 13.3359 31.3828C15.8359 31.3828 17.75 30.8203 19.0781 29.6953C20.4219 28.5547 21.3125 26.5781 21.75 23.7656H26.2734Z" fill="#D6E2EE"/>
<path d="M58.6641 34.5938H54.1406V18.8203H36.9375V34.5938H32.4375V0.46875H36.9375V15.1406H54.1406V0.46875H58.6641V34.5938Z" fill="#D6E2EE"/>
</g>
<defs>
<filter id="filter0_i" x="0" y="0" width="60.6641" height="37.0625" filterUnits="userSpaceOnUse" color-interpolation-filters="sRGB">
<feFlood flood-opacity="0" result="BackgroundImageFix"/>
<feBlend mode="normal" in="SourceGraphic" in2="BackgroundImageFix" result="shape"/>
<feColorMatrix in="SourceAlpha" type="matrix" values="0 0 0 0 0 0 0 0 0 0 0 0 0 0 0 0 0 0 127 0" result="hardAlpha"/>
<feOffset dx="2" dy="3"/>
<feGaussianBlur stdDeviation="1"/>
<feComposite in2="hardAlpha" operator="arithmetic" k2="-1" k3="1"/>
<feColorMatrix type="matrix" values="0 0 0 0 0 0 0 0 0 0 0 0 0 0 0 0 0 0 0.25 0"/>
<feBlend mode="normal" in2="shape" result="effect1_innerShadow"/>
</filter>
</defs>
</svg>
