<svg width="61" height="34" viewBox="0 0 61 34" fill="none" xmlns="http://www.w3.org/2000/svg">
<path fill-rule="evenodd" clip-rule="evenodd" d="M1 17C1 16.1716 1.67157 15.5 2.5 15.5H59.5C60.3284 15.5 61 16.1716 61 17C61 17.8284 60.3284 18.5 59.5 18.5H2.5C1.67157 18.5 1 17.8284 1 17Z" fill="black"/>
<path fill-rule="evenodd" clip-rule="evenodd" d="M0 32C0 31.1716 0.671573 30.5 1.5 30.5H58.5C59.3284 30.5 60 31.1716 60 32C60 32.8284 59.3284 33.5 58.5 33.5H1.5C0.671573 33.5 0 32.8284 0 32Z" fill="black"/>
<path fill-rule="evenodd" clip-rule="evenodd" d="M0 2C0 1.17157 0.671573 0.5 1.5 0.5H58.5C59.3284 0.5 60 1.17157 60 2C60 2.82843 59.3284 3.5 58.5 3.5H1.5C0.671573 3.5 0 2.82843 0 2Z" fill="black"/>
</svg>
