<svg width="70" height="81" viewBox="0 0 86 99" fill="none" xmlns="http://www.w3.org/2000/svg">
    <path class="on-btn" fill-rule="evenodd" clip-rule="evenodd" d="M77.6823 31.6918C82.4013 38.5651 85.4999 47.2065 85.4999 56.3107V56.4461L85.4853 56.5808C84.4913 65.7259 82.3797 73.3346 78.3051 79.6555C74.2091 86.0095 68.2655 90.8528 59.9734 94.6955L59.8623 94.747L59.7466 94.7874C49.8433 98.2462 42.907 99.4911 33.7374 97.2856C28.1922 95.9519 23.0508 93.4082 18.4739 90.2081C14.2103 87.227 10.79 84.1036 8.10812 80.3229C5.42169 76.5358 3.55532 72.2009 2.25561 66.8922C0.561546 59.9727 0.489096 52.695 2.04374 45.7432C3.48278 39.3083 5.81528 34.1896 9.65189 29.6785C13.4515 25.211 18.6094 21.4791 25.4644 17.6264L27.9141 21.9852C21.2843 25.7113 16.7083 29.0993 13.4607 32.9178C10.2501 36.6928 8.22213 41.0261 6.92322 46.8344C5.53661 53.0348 5.60135 59.5322 7.11218 65.7032C8.29365 70.5289 9.934 74.2549 12.1863 77.43C14.4431 80.6116 17.3935 83.3517 21.339 86.1104C25.505 89.0232 30.0795 91.2632 34.9066 92.4242C42.7302 94.306 48.5943 93.377 57.9816 90.1076C65.5508 86.5815 70.6425 82.3139 74.1026 76.9464C77.5826 71.548 79.5463 64.8299 80.4997 56.1766C80.4694 48.2416 77.7498 40.6239 73.5603 34.5218C69.331 28.3618 63.7338 23.9286 58.1766 22.192L59.668 17.4196C66.5379 19.5665 72.9796 24.8421 77.6823 31.6918Z" fill="#FF5252"/>
    <path class="on-btn" fill-rule="evenodd" clip-rule="evenodd" d="M40.5 48.1553V0H45.5V48.1553H40.5Z" fill="#FF5252"/>
</svg>
