<svg width="40" height="69" viewBox="0 0 50 85" fill="none" xmlns="http://www.w3.org/2000/svg">
<path fill-rule="evenodd" clip-rule="evenodd" d="M49.1417 0V84.2072L20.0318 61.4737H0V22.5948L2.53676 22.6321C5.31038 22.6728 9.55555 22.7218 13.2753 22.736C15.1363 22.7432 16.8566 22.7416 18.1921 22.7262C18.8609 22.7185 19.422 22.7075 19.8509 22.6929C20.0095 22.6875 20.1445 22.6818 20.2565 22.676C20.3666 22.6101 20.5107 22.5197 20.692 22.4006C21.2323 22.0457 21.9747 21.5212 22.8887 20.85C24.7097 19.5126 27.1103 17.6677 29.7362 15.6106C34.9828 11.5005 41.0629 6.59495 45.0607 3.33138L49.1417 0ZM22.0534 27.3721C21.9182 27.4303 21.6192 27.5533 21.2459 27.6067C20.7 27.6847 19.5234 27.7112 18.2496 27.7259C16.8764 27.7417 15.1266 27.7432 13.2561 27.736C10.5221 27.7255 7.51041 27.6965 5 27.6656V56.4737H21.7529L44.1417 73.9583V10.519C40.6329 13.3554 36.5232 16.6453 32.8196 19.5467C30.1812 21.6136 27.7324 23.4962 25.8484 24.8799C24.9099 25.5691 24.0858 26.1536 23.437 26.5797C23.1157 26.7908 22.8041 26.985 22.525 27.1386C22.386 27.215 22.2244 27.2985 22.0534 27.3721Z" fill="black"/>
</svg>
